#!OML:ASF H:\LiuWeirdWalks\Patient Classification 1\Patient 1\Session 1\male.ASF
:FULLY-SPECIFIED
:DEGREES
629
root 1.69416 18.2742 35.6187 1.02775 8.18381 5.40652
lowerback 4.19586 0.729332 -1.97582
upperback 1.48226 0.886847 -0.627835
thorax -0.850198 0.44233 0.420903
lowerneck -25.5277 0.93553 7.51295
upperneck 17.825 0.286036 -7.45521
head 9.86569 -0.25755 -3.84468
rclavicle 3.37934e-015 -9.93923e-015
rhumerus -25.4837 -12.2551 -70.3993
rradius 37.3078
rwrist -11.4442
rhand -15.7349 -1.58207
rfingers 7.12502
rthumb 10.4559 -31.302
lclavicle 3.37934e-015 -9.93923e-015
lhumerus -35.6141 -2.79208 87.3505
lradius 32.3265
lwrist 3.70158
lhand -20.0554 -3.74443
lfingers 7.12502
lthumb 6.28638 26.1423
rfemur -18.0551 -3.81141 15.1966
rtibia 37.1397
rfoot -2.93904 -21.2239
rtoes -6.32689
lfemur -16.7323 0.642641 -20.0808
ltibia 53.4054
lfoot -5.86441 5.45039
ltoes -17.8239
630
root 1.70599 18.2684 35.6748 1.03065 8.11483 5.49869
lowerback 4.18258 0.820071 -2.05038
upperback 1.49422 1.0044 -0.713801
thorax -0.832778 0.500923 0.369039
lowerneck -25.4777 0.965165 7.49277
upperneck 17.8292 0.352034 -7.51288
head 9.86442 -0.234774 -3.85165
rclavicle 4.24405e-014 -1.43125e-014
rhumerus -24.8631 -12.1237 -70.1135
rradius 38.0569
rwrist -11.9457
rhand -15.9026 -1.52826
rfingers 7.12502
rthumb 10.2942 -31.2563
lclavicle 4.24405e-014 -1.43125e-014
lhumerus -35.7679 -1.82963 86.8552
lradius 31.5779
lwrist 4.45333
lhand -19.9211 -3.46834
lfingers 7.12502
lthumb 6.41595 26.4145
rfemur -17.8872 -3.7449 15.0893
rtibia 37.2634
rfoot -3.24158 -21.3248
rtoes -6.27294
lfemur -16.9297 0.586848 -20.2875
ltibia 52.2348
lfoot -6.34239 5.48851
ltoes -17.975
631
root 1.71777 18.2595 35.73 0.994912 8.05819 5.61006
lowerback 4.22176 0.913086 -2.13057
upperback 1.47894 1.12257 -0.814889
thorax -0.872339 0.560455 0.30367
lowerneck -25.2987 0.974326 7.47191
upperneck 17.8113 0.396211 -7.5619
head 9.83098 -0.219247 -3.8562
rclavicle -9.54166e-015 1.15295e-014
rhumerus -24.3278 -12.0796 -69.7955
rradius 38.7398
rwrist -12.3635
rhand -16.0664 -1.28502
rfingers 7.12502
rthumb 10.1361 -31.0209
lclavicle -9.54166e-015 1.15295e-014
lhumerus -35.9613 -0.911556 86.3207
lradius 30.7769
lwrist 5.07773
lhand -19.6654 -3.21211
lfingers 7.12502
lthumb 6.66281 26.6631
rfemur -17.6805 -3.66449 14.9563
rtibia 37.406
rfoot -3.61297 -21.4568
rtoes -6.15364
lfemur -17.0194 0.481225 -20.5191
ltibia 50.9541
lfoot -6.81082 5.50286
ltoes -18.2713
632
root 1.72782 18.2473 35.7841 0.91923 8.04543 5.78688
lowerback 4.31057 0.990336 -2.31334
upperback 1.48073 1.21412 -0.920962
thorax -0.923361 0.606613 0.291014
lowerneck -25.1439 0.992112 7.45781
upperneck 17.8152 0.450554 -7.61806
head 9.81037 -0.199546 -3.86392
rclavicle -2.59911e-014 7.95139e-015
rhumerus -23.7761 -12.1002 -69.4712
rradius 39.3734
rwrist -12.7044
rhand -16.22 -1.00035
rfingers 7.12502
rthumb 9.98794 -30.7434
lclavicle -2.59911e-014 7.95139e-015
lhumerus -36.1055 0.0178286 85.7433
lradius 29.9026
lwrist 5.50994
lhand -19.2752 -3.00862
lfingers 7.12502
lthumb 7.03955 26.8543
rfemur -17.4306 -3.58029 14.7493
rtibia 37.58
rfoot -4.05359 -21.6342
rtoes -5.96449
lfemur -16.997 0.296651 -20.8211
ltibia 49.5609
lfoot -7.26826 5.47959
ltoes -18.6421
633
root 1.73862 18.2341 35.8389 0.939565 8.0237 6.00088
lowerback 4.27855 1.06311 -2.54234
upperback 1.45965 1.30093 -1.03399
thorax -0.931336 0.650171 0.299115
lowerneck -24.9709 1.0142 7.45457
upperneck 17.8265 0.509588 -7.67932
head 9.78969 -0.177118 -3.87454
rclavicle 5.1684e-015 8.74653e-015
rhumerus -23.2168 -12.1553 -69.1449
rradius 39.9556
rwrist -12.9971
rhand -16.3693 -0.686883
rfingers 7.12502
rthumb 9.84391 -30.4368
lclavicle 5.1684e-015 8.74653e-015
lhumerus -36.2274 0.946733 85.1317
lradius 28.9714
lwrist 5.77406
lhand -18.8123 -2.91946
lfingers 7.12502
lthumb 7.48629 26.9281
rfemur -17.2944 -3.48722 14.5018
rtibia 37.7788
rfoot -4.53186 -21.8126
rtoes -5.73018
lfemur -17.0054 0.0776982 -21.1721
ltibia 48.0648
lfoot -7.71133 5.44824
ltoes -19.1209
634
root 1.75017 18.2196 35.8941 1.03457 7.99236 6.24381
lowerback 4.13722 1.12314 -2.82806
upperback 1.42994 1.3727 -1.14235
thorax -0.888422 0.685718 0.346611
lowerneck -24.8067 1.0621 7.48613
upperneck 17.8433 0.598878 -7.77294
head 9.7754 -0.142151 -3.89842
rclavicle 2.3879e-014 -4.37326e-015
rhumerus -22.6199 -12.2045 -68.8394
rradius 40.5047
rwrist -13.3139
rhand -16.5618 -0.47498
rfingers 7.12502
rthumb 9.65815 -30.2336
lclavicle 2.3879e-014 -4.37326e-015
lhumerus -36.318 1.92225 84.4762
lradius 27.9801
lwrist 5.78805
lhand -18.2687 -2.9302
lfingers 7.12502
lthumb 8.01097 26.898
rfemur -17.2466 -3.38486 14.2228
rtibia 37.9993
rfoot -5.03735 -21.994
rtoes -5.47967
lfemur -17.024 -0.184492 -21.5608
ltibia 46.4743
lfoot -8.13651 5.42633
ltoes -19.5853
635
root 1.76319 18.2039 35.9494 1.16214 7.94312 6.46565
lowerback 3.93058 1.17033 -3.11427
upperback 1.40465 1.43148 -1.23001
thorax -0.805018 0.714172 0.417848
lowerneck -24.6756 1.13848 7.55341
upperneck 17.8678 0.721996 -7.90572
head 9.77301 -0.0940998 -3.93807
rclavicle 7.90169e-015 -1.35174e-014
rhumerus -21.9652 -12.2169 -68.5602
rradius 41.0269
rwrist -13.6779
rhand -16.8312 -0.441563
rfingers 7.12502
rthumb 9.39825 -30.212
lclavicle 7.90169e-015 -1.35174e-014
lhumerus -36.3636 2.94031 83.7955
lradius 26.9259
lwrist 5.62598
lhand -17.6879 -2.99935
lfingers 7.12502
lthumb 8.57158 26.8067
rfemur -17.2384 -3.27124 13.9657
rtibia 38.2167
rfoot -5.54576 -22.1738
rtoes -5.26508
lfemur -17.0233 -0.472085 -21.9311
ltibia 44.8111
lfoot -8.55097 5.43117
ltoes -19.9925
636
root 1.77658 18.187 36.0045 1.31513 7.89485 6.68509
lowerback 3.67184 1.20252 -3.42708
upperback 1.37409 1.47322 -1.30336
thorax -0.698685 0.733618 0.520679
lowerneck -24.5527 1.2241 7.62268
upperneck 17.9219 0.858962 -8.04158
head 9.7841 -0.0397448 -3.97812
rclavicle 1.89591e-014 2.78299e-015
rhumerus -21.2889 -12.2351 -68.2942
rradius 41.4975
rwrist -13.9944
rhand -17.1015 -0.464563
rfingers 7.12502
rthumb 9.1374 -30.2466
lclavicle 1.89591e-014 2.78299e-015
lhumerus -36.398 3.98288 83.0888
lradius 25.8311
lwrist 5.2581
lhand -17.0846 -3.09877
lfingers 7.12502
lthumb 9.15369 26.6826
rfemur -17.255 -3.15411 13.7125
rtibia 38.4277
rfoot -6.05405 -22.3627
rtoes -5.05397
lfemur -16.9989 -0.802922 -22.3009
ltibia 43.0886
lfoot -8.93399 5.48837
ltoes -20.3409
637
root 1.79286 18.1686 36.0584 1.35148 7.82001 6.7883
lowerback 3.51414 1.23731 -3.59522
upperback 1.35836 1.52067 -1.34677
thorax -0.6313 0.756326 0.57131
lowerneck -24.4045 1.31515 7.70417
upperneck 17.9793 1.00441 -8.19013
head 9.79313 0.0184228 -4.02338
rclavicle 4.29375e-014 0
rhumerus -20.6209 -12.2519 -68.0392
rradius 41.9252
rwrist -14.3209
rhand -17.4057 -0.47512
rfingers 7.12502
rthumb 8.84385 -30.2698
lclavicle 4.29375e-014 0
lhumerus -36.4347 5.05812 82.3401
lradius 24.6853
lwrist 4.61223
lhand -16.4452 -3.22155
lfingers 7.12502
lthumb 9.77062 26.5318
rfemur -17.1488 -3.02652 13.5788
rtibia 38.614
rfoot -6.58393 -22.5421
rtoes -4.8719
lfemur -16.8117 -1.15956 -22.5526
ltibia 41.3262
lfoot -9.28343 5.62505
ltoes -20.5668
638
root 1.80931 18.1488 36.1102 1.41672 7.76096 6.86091
lowerback 3.33723 1.25831 -3.74522
upperback 1.32921 1.55159 -1.37544
thorax -0.566446 0.770864 0.628008
lowerneck -24.2872 1.40932 7.77678
upperneck 18.0812 1.15497 -8.32682
head 9.82406 0.0794932 -4.06389
rclavicle -1.82136e-014 2.3059e-014
rhumerus -19.9428 -12.2665 -67.8044
rradius 42.3215
rwrist -14.6956
rhand -17.7443 -0.514906
rfingers 7.12502
rthumb 8.51713 -30.3231
lclavicle -1.82136e-014 2.3059e-014
lhumerus -36.4632 6.1653 81.5524
lradius 23.5136
lwrist 3.70498
lhand -15.7641 -3.34603
lfingers 7.12502
lthumb 10.4277 26.3754
rfemur -17.0739 -2.92349 13.4817
rtibia 38.7823
rfoot -7.12427 -22.7248
rtoes -4.68125
lfemur -16.628 -1.55909 -22.7711
ltibia 39.536
lfoot -9.53064 5.80721
ltoes -20.6959
639
root 1.82758 18.1284 36.1626 1.49264 7.68286 6.89655
lowerback 3.13736 1.29548 -3.81407
upperback 1.26339 1.60693 -1.41221
thorax -0.525169 0.79849 0.630326
lowerneck -24.0907 1.47341 7.82828
upperneck 18.1963 1.27142 -8.43428
head 9.84241 0.128314 -4.09484
rclavicle -1.38404e-014 7.15625e-015
rhumerus -19.3466 -12.3175 -67.563
rradius 42.674
rwrist -15.0779
rhand -18.0932 -0.551864
rfingers 7.12502
rthumb 8.18038 -30.3735
lclavicle -1.38404e-014 7.15625e-015
lhumerus -36.5478 7.23935 80.7217
lradius 22.3422
lwrist 2.52888
lhand -15.035 -3.4088
lfingers 7.12502
lthumb 11.131 26.276
rfemur -17.0008 -2.84305 13.4207
rtibia 38.9248
rfoot -7.70088 -22.8784
rtoes -4.4498
lfemur -16.4175 -1.97798 -22.9537
ltibia 37.736
lfoot -9.64021 6.03111
ltoes -20.7885
640
root 1.84592 18.1058 36.2144 1.53164 7.62263 6.92161
lowerback 2.96906 1.32146 -3.89298
upperback 1.19475 1.64569 -1.43614
thorax -0.50446 0.818121 0.651434
lowerneck -23.8638 1.5445 7.90275
upperneck 18.3204 1.39615 -8.55635
head 9.85971 0.181573 -4.13372
rclavicle 2.67117e-014 5.96354e-015
rhumerus -18.7647 -12.3437 -67.3396
rradius 42.9837
rwrist -15.5201
rhand -18.4858 -0.561992
rfingers 7.12502
rthumb 7.80151 -30.3981
lclavicle 2.67117e-014 5.96354e-015
lhumerus -36.6727 8.36645 79.8356
lradius 21.1664
lwrist 1.03187
lhand -14.3199 -3.52205
lfingers 7.12502
lthumb 11.8206 26.1243
rfemur -16.8721 -2.80018 13.3683
rtibia 39.0515
rfoot -8.3314 -23.0183
rtoes -4.16303
lfemur -16.141 -2.41658 -23.1246
ltibia 35.9481
lfoot -9.57423 6.24027
ltoes -20.5973
641
root 1.8662 18.0814 36.2666 1.5649 7.54264 6.93372
lowerback 2.78436 1.3457 -3.95926
upperback 1.1247 1.68359 -1.45116
thorax -0.475953 0.837244 0.675184
lowerneck -23.6435 1.6178 7.97939
upperneck 18.4726 1.52407 -8.6751
head 9.8886 0.23696 -4.17235
rclavicle -1.89342e-014 1.47101e-014
rhumerus -18.1735 -12.3475 -67.1304
rradius 43.2366
rwrist -15.9687
rhand -18.8743 -0.557538
rfingers 7.12502
rthumb 7.4265 -30.4072
lclavicle -1.89342e-014 1.47101e-014
lhumerus -36.8245 9.53705 78.9086
lradius 20.0088
lwrist -0.709581
lhand -13.6746 -3.71625
lfingers 7.12502
lthumb 12.4429 25.8934
rfemur -16.7237 -2.79776 13.3191
rtibia 39.1573
rfoot -9.03119 -23.098
rtoes -3.79289
lfemur -15.833 -2.82416 -23.2889
ltibia 34.2085
lfoot -9.34304 6.42879
ltoes -20.002
642
root 1.88802 18.0545 36.319 1.57569 7.45219 6.95445
lowerback 2.60263 1.36235 -4.0494
upperback 1.05507 1.71094 -1.45833
thorax -0.449195 0.851072 0.720684
lowerneck -23.4037 1.70175 8.07669
upperneck 18.6303 1.66471 -8.80478
head 9.91764 0.298957 -4.21663
rclavicle -2.17669e-014 6.36111e-015
rhumerus -17.5876 -12.3086 -66.9413
rradius 43.4407
rwrist -16.4288
rhand -19.2555 -0.495235
rfingers 7.12502
rthumb 7.05855 -30.3575
lclavicle -2.17669e-014 6.36111e-015
lhumerus -37.0242 10.7703 77.9307
lradius 18.8947
lwrist -2.66934
lhand -13.0615 -3.90671
lfingers 7.12502
lthumb 13.034 25.6661
rfemur -16.5332 -2.83021 13.2475
rtibia 39.2447
rfoot -9.80831 -23.1261
rtoes -3.3691
lfemur -15.4844 -3.19216 -23.4734
ltibia 32.5706
lfoot -8.95789 6.62962
ltoes -18.8214
